<?xml version="1.0" standalone="no"?>
<!DOCTYPE svg PUBLIC "-//W3C//DTD SVG 20010904//EN"
 "http://www.w3.org/TR/2001/REC-SVG-20010904/DTD/svg10.dtd">
<svg version="1.0" xmlns="http://www.w3.org/2000/svg"
 width="500.000000pt" height="500.000000pt" viewBox="0 0 500.000000 500.000000"
 preserveAspectRatio="xMidYMid meet">

<g transform="translate(0.000000,500.000000) scale(0.100000,-0.100000)"
fill="#00A2FF" stroke="none">
<path d="M2416 4109 c-106 -26 -242 -129 -362 -273 -195 -235 -332 -496 -419
-797 -74 -256 -103 -515 -71 -638 29 -114 103 -182 206 -189 75 -5 123 11 178
61 53 50 76 92 115 217 35 113 71 187 142 296 59 89 179 209 268 267 74 49
211 113 261 123 l39 7 -8 -169 c-10 -210 -9 -256 11 -318 54 -164 288 -210
404 -79 62 71 85 156 85 313 0 69 -4 137 -8 153 -12 45 10 33 92 -50 160 -163
218 -378 134 -497 -57 -81 -152 -99 -288 -55 -197 64 -335 -6 -335 -170 0 -80
30 -134 94 -172 48 -28 56 -30 141 -27 79 3 99 7 157 36 124 61 219 189 270
367 30 106 33 305 6 345 -10 13 -18 31 -18 38 0 27 -81 186 -121 238 -22 28
-58 65 -81 80 -39 27 -77 89 -63 102 7 7 134 -120 174 -173 l22 -30 -18 34
c-25 47 -148 170 -208 209 -45 30 -54 42 -95 135 -120 268 -316 506 -488 592
-58 29 -154 40 -216 24z m167 -26 c9 -2 14 -9 11 -15 -5 -8 -1 -9 11 -5 31 12
147 -84 259 -215 41 -47 122 -175 168 -264 40 -77 99 -234 93 -245 -4 -5 -1
-9 4 -9 6 0 10 -3 9 -7 -1 -5 4 -21 10 -36 7 -15 14 -40 17 -55 l5 -27 -12 25
c-6 14 -45 92 -85 173 -40 82 -70 154 -66 160 3 5 2 7 -4 4 -5 -3 -20 13 -33
36 -33 59 -73 107 -162 195 -42 41 -75 79 -72 84 3 5 11 5 17 1 7 -3 3 3 -7
15 -11 12 -24 22 -29 22 -6 0 -3 -6 8 -13 11 -9 14 -16 8 -20 -6 -4 -37 9 -69
28 -31 19 -66 37 -76 41 -13 4 -17 11 -13 21 4 12 2 13 -7 6 -7 -5 -36 -10
-65 -10 -34 -1 -63 -8 -85 -21 -23 -14 -38 -18 -48 -12 -20 13 -30 12 -30 0 0
-5 3 -9 8 -9 4 1 13 1 21 0 18 -1 -5 -31 -25 -31 -8 0 -14 -3 -14 -7 0 -5 -20
-30 -45 -58 -25 -27 -45 -52 -45 -55 0 -4 -8 -15 -17 -26 -10 -10 -27 -36 -38
-57 -23 -45 -34 -54 -45 -37 -5 8 -9 8 -13 -4 -4 -9 -2 -15 2 -13 17 4 10 -19
-27 -91 -22 -44 -42 -70 -49 -67 -8 2 -24 -16 -39 -46 -14 -28 -21 -49 -16
-45 5 3 17 23 27 45 10 22 21 38 26 35 9 -5 -77 -185 -95 -196 -6 -4 -7 -8 -3
-8 25 0 -83 -142 -129 -170 -49 -28 -91 -27 -105 4 -9 19 -7 36 9 83 11 32 24
57 30 56 6 -2 9 3 6 10 -2 7 3 30 11 51 18 43 31 44 15 1 -6 -15 -9 -30 -6
-32 7 -7 26 59 20 69 -3 5 13 47 36 94 37 73 45 83 58 72 13 -11 14 -10 3 10
-7 14 -8 22 -1 22 5 0 9 3 8 8 -3 11 24 62 33 62 5 0 16 16 24 36 13 33 17 35
33 23 15 -13 16 -12 3 4 -16 20 -21 10 82 135 37 45 73 80 78 76 5 -3 8 0 7 8
-2 7 3 12 10 10 8 -1 11 2 8 7 -3 5 2 15 11 22 14 12 16 12 9 -1 -4 -8 3 -3
16 13 13 15 29 27 35 27 7 0 18 8 25 19 18 25 126 83 140 75 7 -5 8 -2 3 6 -6
9 -2 10 15 5 17 -5 21 -4 15 6 -6 9 -4 11 8 6 9 -3 19 -2 22 4 6 9 51 5 98 -8z
m-28 -359 c44 -21 81 -70 122 -163 49 -113 48 -114 -49 -135 -109 -24 -228
-68 -344 -127 -52 -26 -94 -44 -94 -40 0 21 103 250 141 313 61 103 110 147
187 167 2 1 19 -6 37 -15z m377 -266 c101 -108 228 -374 212 -445 -4 -22 -3
-25 5 -13 8 11 11 -1 11 -50 0 -127 -63 -210 -161 -210 -61 0 -107 31 -138 94
l-24 48 16 177 c10 97 20 233 24 304 3 70 10 127 16 127 5 0 23 -15 39 -32z
m-287 -91 c40 -30 -3 -86 -72 -90 -12 -1 -20 -4 -17 -6 2 -2 -31 -18 -74 -35
-136 -56 -280 -152 -379 -254 -58 -60 -84 -99 -137 -202 -82 -158 -109 -190
-164 -190 -49 0 -72 20 -72 64 0 40 18 96 32 96 5 0 7 4 3 9 -5 9 52 116 80
151 7 8 57 60 111 114 116 116 233 197 393 274 157 76 255 98 296 69z m522
-927 c86 -34 127 -37 201 -11 59 20 58 20 -12 -33 -27 -20 -55 -35 -63 -32 -8
3 -12 2 -9 -3 7 -11 -68 -32 -125 -35 -55 -3 -121 13 -112 27 4 6 1 7 -6 2
-17 -10 -61 33 -61 61 0 30 35 54 78 54 19 0 67 -13 109 -30z"/>
<path d="M2458 4003 c6 -2 18 -2 25 0 6 3 1 5 -13 5 -14 0 -19 -2 -12 -5z"/>
<path d="M2410 3990 c-13 -8 -13 -10 2 -10 9 0 20 5 23 10 8 13 -5 13 -25 0z"/>
<path d="M2672 3944 c10 -10 20 -16 22 -13 3 3 -5 11 -17 18 -21 13 -21 12 -5
-5z"/>
<path d="M2304 3908 l-19 -23 23 19 c21 18 27 26 19 26 -2 0 -12 -10 -23 -22z"/>
<path d="M2139 3853 c-13 -16 -12 -17 4 -4 9 7 17 15 17 17 0 8 -8 3 -21 -13z"/>
<path d="M2236 3835 c-9 -26 -7 -32 5 -12 6 10 9 21 6 23 -2 3 -7 -2 -11 -11z"/>
<path d="M2196 3773 l-17 -28 19 22 c11 12 23 19 27 15 5 -4 5 -1 1 6 -10 17
-11 16 -30 -15z"/>
<path d="M2891 3783 c7 -12 15 -20 18 -17 3 2 -3 12 -13 22 -17 16 -18 16 -5
-5z"/>
<path d="M2166 3732 c-3 -5 1 -9 9 -9 8 0 12 4 9 9 -3 4 -7 8 -9 8 -2 0 -6 -4
-9 -8z"/>
<path d="M2100 3600 c-6 -11 -8 -20 -6 -20 3 0 10 9 16 20 6 11 8 20 6 20 -3
0 -10 -9 -16 -20z"/>
<path d="M1940 3570 c-6 -11 -8 -20 -6 -20 3 0 10 9 16 20 6 11 8 20 6 20 -3
0 -10 -9 -16 -20z"/>
<path d="M2061 3523 c-10 -26 -10 -27 4 -9 8 11 15 23 15 28 0 15 -7 8 -19
-19z"/>
<path d="M1873 3475 c4 -5 0 -17 -10 -27 -9 -10 -14 -20 -11 -23 3 -3 13 6 22
19 12 19 13 27 3 32 -6 4 -9 3 -4 -1z"/>
<path d="M1830 3385 c-7 -9 -11 -17 -9 -20 3 -2 10 5 17 15 14 24 10 26 -8 5z"/>
<path d="M1926 3267 c3 -10 9 -15 12 -12 3 3 0 11 -7 18 -10 9 -11 8 -5 -6z"/>
<path d="M1781 3245 c-1 -22 16 -45 34 -45 5 0 3 6 -6 13 -9 7 -19 21 -22 32
-5 19 -5 19 -6 0z"/>
<path d="M1899 3243 c-8 -9 -27 -22 -44 -29 -24 -11 -26 -13 -9 -14 11 0 33
14 49 30 16 17 26 30 23 30 -3 0 -12 -7 -19 -17z"/>
<path d="M1741 3174 c0 -11 3 -14 6 -6 3 7 2 16 -1 19 -3 4 -6 -2 -5 -13z"/>
<path d="M1865 3170 c-4 -6 -11 -7 -17 -4 -7 4 -8 2 -4 -5 6 -9 12 -9 24 1 10
7 19 14 21 15 2 2 -1 3 -7 3 -6 0 -14 -5 -17 -10z"/>
<path d="M3003 3080 c0 -25 2 -35 4 -22 2 12 2 32 0 45 -2 12 -4 2 -4 -23z"/>
<path d="M2991 2984 c0 -11 3 -14 6 -6 3 7 2 16 -1 19 -3 4 -6 -2 -5 -13z"/>
<path d="M2970 2939 c0 -5 5 -7 10 -4 6 3 10 8 10 11 0 2 -4 4 -10 4 -5 0 -10
-5 -10 -11z"/>
<path d="M3141 2924 c0 -11 3 -14 6 -6 3 7 2 16 -1 19 -3 4 -6 -2 -5 -13z"/>
<path d="M3115 2840 c-3 -5 -1 -10 4 -10 6 0 11 5 11 10 0 6 -2 10 -4 10 -3 0
-8 -4 -11 -10z"/>
<path d="M3070 2785 c-7 -9 -8 -15 -2 -15 5 0 12 7 16 15 3 8 4 15 2 15 -2 0
-9 -7 -16 -15z"/>
<path d="M2957 2759 c7 -7 15 -10 18 -7 3 3 -2 9 -12 12 -14 6 -15 5 -6 -5z"/>
<path d="M2203 3104 l-28 -25 33 22 c17 13 32 24 32 26 0 8 -11 1 -37 -23z"/>
<path d="M2104 3018 l-19 -23 23 19 c21 18 27 26 19 26 -2 0 -12 -10 -23 -22z"/>
<path d="M1915 2729 c-4 -6 -5 -12 -2 -15 2 -3 7 2 10 11 7 17 1 20 -8 4z"/>
<path d="M1798 2613 c7 -3 16 -2 19 1 4 3 -2 6 -13 5 -11 0 -14 -3 -6 -6z"/>
<path d="M3094 2426 c11 -9 27 -16 35 -15 14 0 14 1 1 6 -8 3 -24 10 -35 15
-20 9 -20 9 -1 -6z"/>
<path d="M3220 2360 c0 -5 5 -10 11 -10 5 0 7 5 4 10 -3 6 -8 10 -11 10 -2 0
-4 -4 -4 -10z"/>
<path d="M3078 2343 c7 -3 16 -2 19 1 4 3 -2 6 -13 5 -11 0 -14 -3 -6 -6z"/>
<path d="M3153 2343 c9 -2 25 -2 35 0 9 3 1 5 -18 5 -19 0 -27 -2 -17 -5z"/>
<path d="M3455 3080 c9 -16 18 -30 21 -30 2 0 -2 14 -11 30 -9 17 -18 30 -21
30 -2 0 2 -13 11 -30z"/>
<path d="M1514 1986 c-40 -18 -98 -87 -112 -135 -15 -49 -15 -126 0 -190 l11
-51 53 0 53 0 -19 43 c-32 70 -29 77 36 77 l56 0 -4 -60 -4 -60 52 0 53 0 -10
32 c-5 18 -9 101 -9 184 l0 151 -25 11 c-34 16 -92 15 -131 -2z m76 -126 l0
-60 -55 0 c-60 0 -62 3 -41 54 15 36 50 66 78 66 15 0 18 -9 18 -60z"/>
<path d="M1815 1986 c-125 -54 -140 -276 -24 -353 34 -22 47 -25 106 -21 118
6 168 64 168 193 0 90 -29 145 -90 175 -47 23 -116 25 -160 6z m109 -66 c39
-15 59 -63 54 -133 -4 -50 -9 -64 -32 -84 -15 -12 -40 -23 -56 -23 -16 0 -41
11 -56 23 -23 20 -28 34 -32 84 -8 106 44 163 122 133z"/>
<path d="M2143 1992 l-43 -3 0 -122 c1 -143 10 -191 43 -225 47 -47 158 -46
205 2 26 26 27 30 33 184 3 86 5 158 5 159 -1 0 -21 3 -45 4 l-44 3 2 -134 c2
-150 -5 -172 -54 -172 -49 0 -56 22 -54 170 0 73 0 134 -2 135 -2 1 -23 1 -46
-1z"/>
<path d="M2545 1983 c-102 -54 -146 -174 -113 -313 l13 -55 53 -3 c28 -2 52
-1 52 1 0 2 -6 17 -14 33 -8 16 -18 41 -21 57 l-7 27 57 0 57 0 -4 -60 -3 -60
50 0 50 0 -5 182 c-5 182 -5 182 -30 195 -34 17 -99 16 -135 -4z m75 -123 l0
-60 -55 0 c-30 0 -55 2 -55 5 0 20 35 83 53 97 44 34 57 24 57 -42z"/>
<path d="M2745 1803 l0 -193 50 0 50 0 -3 155 -3 155 46 0 c39 0 47 -4 57 -26
16 -35 1 -57 -48 -68 -21 -5 -41 -11 -42 -12 -2 -1 11 -48 30 -103 l33 -100
59 -1 c56 0 58 1 43 18 -9 9 -26 43 -38 75 l-22 57 37 33 c32 27 37 38 38 76
0 48 -23 88 -63 108 -13 6 -69 13 -124 15 l-100 3 0 -192z"/>
<path d="M3072 1990 c-4 -3 -7 -89 -7 -193 l0 -187 50 0 50 0 -3 189 -3 189
-40 4 c-22 2 -43 1 -47 -2z"/>
<path d="M3413 1992 c-23 -3 -23 -6 -23 -141 0 -147 -4 -161 -50 -161 -46 0
-50 14 -50 162 l0 138 -47 0 -48 0 5 -152 c5 -165 12 -188 60 -213 63 -33 174
-12 202 38 8 14 15 78 18 174 l5 152 -25 3 c-14 2 -35 2 -47 0z"/>
<path d="M3594 1981 c-52 -24 -74 -55 -74 -104 0 -51 35 -84 121 -112 49 -17
65 -27 67 -43 7 -49 -80 -53 -129 -6 l-26 25 -21 -32 c-11 -18 -18 -38 -15
-46 10 -25 80 -53 133 -53 97 0 155 45 155 122 0 49 -25 73 -106 103 -35 12
-68 29 -73 38 -26 41 64 65 113 30 23 -15 25 -15 38 3 36 47 35 51 -10 73 -54
26 -119 27 -173 2z"/>
<path d="M1991 1596 c-20 -24 -77 -31 -121 -13 l-39 15 16 -24 c32 -50 125
-72 168 -40 18 13 18 16 4 46 -13 28 -16 30 -28 16z"/>
<path d="M2070 1323 c5 -15 14 -47 20 -70 6 -24 15 -43 20 -43 5 0 17 26 27
57 l18 56 16 -53 c9 -30 21 -56 26 -57 5 -2 19 28 30 67 11 38 17 70 13 70 -5
0 -16 -26 -26 -57 l-17 -58 -15 58 c-9 31 -21 57 -27 57 -7 0 -18 -25 -25 -55
-15 -62 -24 -61 -37 4 -4 25 -14 46 -20 48 -9 3 -10 -3 -3 -24z"/>
<path d="M2385 1340 c-6 -9 -45 -120 -45 -127 0 -13 19 1 23 17 3 13 14 20 31
20 15 0 30 -8 36 -20 24 -45 26 -15 2 50 -24 68 -34 81 -47 60z m30 -57 c5
-20 3 -23 -19 -23 -24 0 -24 2 -14 31 11 32 21 29 33 -8z"/>
<path d="M2568 1343 c20 -4 22 -11 24 -71 l1 -67 6 65 c5 58 8 65 31 71 17 5
7 7 -30 7 -30 -1 -45 -3 -32 -5z"/>
<path d="M2740 1280 l0 -70 48 2 c43 1 44 2 10 5 -33 4 -38 8 -38 29 0 20 5
24 30 24 17 0 30 5 30 10 0 6 -13 10 -30 10 -25 0 -30 4 -30 24 0 21 5 25 38
29 34 3 33 4 -10 5 l-48 2 0 -70z"/>
<path d="M2930 1280 c0 -40 4 -70 10 -70 6 0 10 14 10 30 0 20 5 30 16 30 8 0
20 -13 25 -30 6 -16 15 -30 21 -30 6 0 7 8 3 18 -15 36 -17 52 -6 52 6 0 11
13 11 29 0 31 -14 41 -61 41 l-29 0 0 -70z m70 45 c16 -19 -3 -45 -31 -45 -14
0 -19 7 -19 30 0 23 5 30 19 30 10 0 24 -7 31 -15z"/>
</g>
</svg>
