<?xml version="1.0" standalone="no"?>
<!DOCTYPE svg PUBLIC "-//W3C//DTD SVG 20010904//EN"
 "http://www.w3.org/TR/2001/REC-SVG-20010904/DTD/svg10.dtd">
<svg version="1.0" xmlns="http://www.w3.org/2000/svg"
 width="246.000000pt" height="294.000000pt" viewBox="0 0 246.000000 294.000000"
 preserveAspectRatio="xMidYMid meet">

<g transform="translate(0.000000,294.000000) scale(0.100000,-0.100000)"
fill="#000000" stroke="none">
<path d="M1060 2913 c-48 -9 -166 -73 -228 -124 -118 -98 -289 -323 -396 -521
-178 -329 -297 -855 -242 -1067 29 -114 103 -182 206 -189 75 -5 123 11 178
61 51 48 83 106 107 197 60 221 231 460 418 583 74 49 211 113 261 123 l39 7
-8 -174 c-10 -216 -8 -252 12 -313 53 -164 287 -210 403 -79 62 71 85 156 85
313 0 69 -4 137 -8 153 -13 46 13 32 93 -51 159 -164 216 -378 133 -496 -57
-81 -152 -99 -288 -55 -203 66 -342 -9 -333 -182 4 -82 32 -127 101 -165 44
-23 57 -26 135 -22 74 2 97 8 154 36 124 61 219 189 270 367 30 105 33 305 6
345 -10 13 -18 31 -18 38 0 8 -18 52 -39 98 -45 96 -114 188 -167 224 -35 23
-72 85 -59 98 6 7 133 -119 174 -173 l23 -30 -20 33 c-35 62 -119 148 -190
196 -60 42 -72 54 -92 104 -67 168 -197 369 -315 487 -150 150 -263 201 -395
178z m110 -26 c0 -4 5 -5 11 -2 12 8 69 -13 69 -25 0 -4 8 -7 18 -6 9 0 16 -5
14 -12 -1 -8 2 -11 6 -8 5 3 22 -6 36 -19 15 -14 31 -25 35 -25 13 0 111 -107
104 -114 -4 -3 0 -6 8 -6 11 0 11 -2 -1 -10 -13 -8 -13 -10 2 -10 21 0 60 -40
54 -56 -2 -6 0 -17 6 -25 8 -11 8 -10 4 5 -6 16 -4 17 9 6 9 -7 14 -19 11 -26
-3 -8 -1 -13 5 -11 6 1 23 -20 37 -48 15 -27 30 -52 33 -55 8 -7 52 -104 49
-109 -1 -2 4 -7 11 -12 10 -6 10 -11 -1 -23 -11 -14 -11 -16 2 -11 12 5 22
-12 42 -65 14 -40 24 -75 21 -80 -3 -5 0 -10 5 -12 9 -3 43 -108 37 -114 -1
-1 -22 41 -46 94 -66 144 -76 163 -99 205 -12 20 -31 54 -43 75 -74 132 -275
328 -367 356 -12 4 -20 11 -18 15 5 8 -9 9 -89 12 -36 1 -63 -4 -79 -15 -14
-9 -32 -16 -41 -16 -8 0 -15 -6 -15 -14 0 -8 -7 -17 -16 -20 -10 -4 -13 -2 -8
6 4 7 3 8 -4 4 -7 -4 -12 -13 -12 -21 0 -7 -17 -28 -37 -46 -21 -17 -31 -28
-23 -23 8 4 -1 -12 -21 -36 -20 -25 -47 -64 -61 -88 -13 -23 -28 -39 -31 -35
-4 3 -7 -1 -7 -10 0 -9 -13 -39 -30 -67 -16 -28 -30 -55 -30 -61 0 -6 -5 -7
-12 -3 -7 4 -8 3 -4 -4 11 -18 -4 -37 -16 -21 -7 10 -8 8 -4 -7 9 -30 -31
-107 -51 -100 -13 5 -14 4 -4 -8 9 -11 8 -22 -7 -50 -11 -19 -22 -32 -26 -29
-4 4 -4 0 0 -10 3 -10 1 -17 -5 -17 -6 0 -11 -8 -11 -17 0 -15 -1 -15 -13 1
-12 17 -14 16 -31 -9 -10 -15 -32 -33 -49 -41 -28 -13 -29 -14 -7 -12 14 2 31
11 38 21 7 9 18 15 23 11 5 -3 9 -2 8 3 -4 25 3 36 11 15 11 -27 3 -53 -15
-46 -7 3 -16 0 -21 -7 -5 -8 -3 -10 6 -4 8 5 11 3 8 -6 -3 -8 -11 -13 -17 -12
-6 2 -10 0 -10 -5 4 -23 -6 -35 -48 -62 -94 -60 -141 -28 -108 71 22 64 61
147 84 173 12 15 12 17 1 11 -16 -10 37 86 54 97 6 4 7 8 3 8 -15 0 14 40 30
40 13 0 13 3 3 15 -7 8 -8 15 -3 15 5 0 15 16 22 35 7 19 16 35 20 35 4 0 13
12 19 26 7 14 17 22 22 19 5 -3 7 0 5 8 -8 18 67 119 77 104 5 -9 11 -8 20 2
10 10 10 12 1 7 -22 -12 -14 17 12 47 14 16 29 25 35 22 6 -4 7 1 3 11 -5 13
-3 16 10 11 10 -4 14 -2 11 6 -2 7 10 26 27 42 18 17 29 23 25 15 -4 -8 3 -3
16 13 13 15 29 27 35 27 7 0 18 9 26 20 18 25 126 82 140 73 6 -4 7 -1 2 7 -6
10 -4 12 8 7 10 -4 17 -2 17 4 0 6 7 9 15 6 8 -4 17 -2 20 3 7 12 55 9 55 -3z
m57 -396 c38 -38 101 -162 110 -215 l5 -32 -83 -18 c-110 -24 -229 -67 -345
-127 -52 -26 -94 -44 -94 -40 0 5 22 62 50 126 107 253 203 365 298 347 13 -3
40 -21 59 -41z m370 -279 c62 -86 66 -93 108 -179 43 -91 78 -191 71 -209 -3
-7 -1 -16 4 -19 11 -7 13 -87 4 -122 -4 -13 -10 -20 -15 -17 -5 3 -6 -2 -3
-10 8 -22 -32 -84 -66 -101 -49 -26 -162 -13 -145 15 3 6 0 7 -8 4 -18 -6 -49
36 -66 88 -10 30 -9 71 3 205 8 93 18 222 22 288 4 66 8 123 11 127 9 16 35
-7 80 -70z m-319 -48 l22 -15 -19 -28 c-17 -24 -104 -66 -155 -75 -21 -4 -135
-66 -208 -113 -94 -59 -185 -139 -234 -203 -27 -36 -40 -46 -47 -37 -6 8 -7 7
-3 -5 7 -22 -24 -84 -34 -68 -5 8 -9 7 -13 -5 -4 -9 -3 -13 3 -10 16 10 12 -8
-15 -63 -14 -29 -30 -52 -36 -52 -5 0 -7 -5 -4 -10 8 -12 -29 -61 -58 -77 -54
-30 -117 -4 -117 47 0 40 29 116 72 191 41 71 224 266 275 293 15 8 39 25 53
38 33 30 80 57 217 124 164 79 255 100 301 68z m513 -923 c73 -37 145 -38 234
-6 16 6 15 4 -4 -11 -14 -10 -32 -25 -42 -35 -39 -39 -228 -85 -230 -56 0 9
-2 9 -5 0 -7 -16 -58 2 -102 34 -37 28 -40 62 -7 88 27 21 101 14 156 -14z"/>
<path d="M1088 2803 c7 -3 16 -2 19 1 4 3 -2 6 -13 5 -11 0 -14 -3 -6 -6z"/>
<path d="M1138 2803 c7 -3 16 -2 19 1 4 3 -2 6 -13 5 -11 0 -14 -3 -6 -6z"/>
<path d="M1198 2803 c6 -2 10 -8 8 -11 -2 -4 8 -8 22 -9 l27 -1 -25 14 c-14 7
-29 13 -35 13 -5 0 -4 -3 3 -6z"/>
<path d="M989 2753 c-13 -17 -13 -17 6 -3 11 8 22 16 24 17 2 2 0 3 -6 3 -6 0
-17 -8 -24 -17z"/>
<path d="M1273 2763 c11 -3 16 -11 13 -19 -3 -8 -1 -12 4 -9 13 8 52 -14 45
-26 -4 -5 -3 -9 2 -8 19 3 34 -2 28 -10 -3 -5 -1 -12 4 -15 5 -4 12 -2 15 3 7
11 -98 92 -116 90 -7 -1 -5 -3 5 -6z"/>
<path d="M937 2712 c-15 -16 -15 -19 -2 -19 8 0 13 3 10 5 -3 3 0 11 6 19 17
20 5 16 -14 -5z"/>
<path d="M799 2693 c-13 -16 -12 -17 4 -4 9 7 17 15 17 17 0 8 -8 3 -21 -13z"/>
<path d="M1394 2667 c-4 -6 -4 -9 1 -5 4 4 14 3 22 -4 7 -6 15 -9 18 -7 2 3
-4 10 -15 17 -15 9 -21 9 -26 -1z"/>
<path d="M866 2634 c-5 -14 -4 -15 9 -4 17 14 19 20 6 20 -5 0 -12 -7 -15 -16z"/>
<path d="M1428 2633 c6 -2 18 -2 25 0 6 3 1 5 -13 5 -14 0 -19 -2 -12 -5z"/>
<path d="M720 2600 c-9 -6 -10 -10 -3 -10 6 0 15 5 18 10 8 12 4 12 -15 0z"/>
<path d="M825 2574 c-9 -15 -12 -23 -6 -20 11 7 35 46 28 46 -3 0 -12 -12 -22
-26z"/>
<path d="M793 2518 c-22 -29 -24 -41 -3 -20 12 13 20 25 17 28 -2 2 -9 -1 -14
-8z"/>
<path d="M1565 2480 c3 -5 8 -10 11 -10 2 0 4 5 4 10 0 6 -5 10 -11 10 -5 0
-7 -4 -4 -10z"/>
<path d="M710 2369 c-7 -11 -10 -23 -7 -25 2 -2 9 7 15 21 14 30 7 33 -8 4z"/>
<path d="M514 2292 c3 -5 1 -12 -6 -14 -8 -3 -9 -6 -1 -11 6 -4 13 0 17 8 3 8
0 17 -6 21 -6 4 -8 3 -4 -4z"/>
<path d="M647 2245 c-9 -19 -15 -35 -12 -35 7 0 37 61 33 66 -3 2 -12 -12 -21
-31z"/>
<path d="M481 2223 c-10 -26 -10 -27 4 -9 8 11 15 23 15 28 0 15 -7 8 -19 -19z"/>
<path d="M426 2123 c-6 -14 -5 -15 5 -6 7 7 10 15 7 18 -3 3 -9 -2 -12 -12z"/>
<path d="M411 2050 c-1 -26 15 -50 33 -50 5 0 2 8 -6 18 -9 9 -18 26 -21 37
-4 16 -5 15 -6 -5z"/>
<path d="M374 1979 c-4 -7 -3 -9 4 -5 5 3 13 0 15 -6 4 -9 6 -10 6 -1 1 17
-16 25 -25 12z"/>
<path d="M467 1959 c7 -7 15 -10 18 -7 3 3 -2 9 -12 12 -14 6 -15 5 -6 -5z"/>
<path d="M1633 1880 c0 -25 2 -35 4 -22 2 12 2 32 0 45 -2 12 -4 2 -4 -23z"/>
<path d="M1601 1874 c0 -11 3 -14 6 -6 3 7 2 16 -1 19 -3 4 -6 -2 -5 -13z"/>
<path d="M1491 1834 c0 -11 3 -14 6 -6 3 7 2 16 -1 19 -3 4 -6 -2 -5 -13z"/>
<path d="M1621 1784 c0 -11 3 -14 6 -6 3 7 2 16 -1 19 -3 4 -6 -2 -5 -13z"/>
<path d="M1587 1724 c-26 -35 -17 -38 11 -3 13 16 20 29 15 29 -4 0 -16 -12
-26 -26z"/>
<path d="M1771 1724 c0 -11 3 -14 6 -6 3 7 2 16 -1 19 -3 4 -6 -2 -5 -13z"/>
<path d="M1527 1616 c-4 -10 -1 -13 9 -9 15 6 19 23 5 23 -5 0 -11 -7 -14 -14z"/>
<path d="M1655 1560 c-3 -5 -2 -10 4 -10 5 0 13 5 16 10 3 6 2 10 -4 10 -5 0
-13 -4 -16 -10z"/>
<path d="M1040 2030 c-9 -6 -10 -10 -3 -10 6 0 15 5 18 10 8 12 4 12 -15 0z"/>
<path d="M975 2000 c-3 -5 -1 -10 4 -10 6 0 11 5 11 10 0 6 -2 10 -4 10 -3 0
-8 -4 -11 -10z"/>
<path d="M885 1940 c-3 -5 -1 -10 4 -10 6 0 11 5 11 10 0 6 -2 10 -4 10 -3 0
-8 -4 -11 -10z"/>
<path d="M735 1820 c-10 -11 -16 -22 -14 -24 2 -2 12 7 22 20 22 29 17 32 -8
4z"/>
<path d="M675 1754 c-9 -15 -12 -23 -6 -20 11 7 35 46 28 46 -3 0 -12 -12 -22
-26z"/>
<path d="M482 1434 c-7 -8 -8 -14 -3 -14 10 0 25 19 20 25 -2 1 -10 -3 -17
-11z"/>
<path d="M423 1413 c9 -2 23 -2 30 0 6 3 -1 5 -18 5 -16 0 -22 -2 -12 -5z"/>
<path d="M1828 1203 c7 -3 16 -2 19 1 4 3 -2 6 -13 5 -11 0 -14 -3 -6 -6z"/>
<path d="M1948 1193 c7 -3 16 -2 19 1 4 3 -2 6 -13 5 -11 0 -14 -3 -6 -6z"/>
<path d="M1793 1143 c9 -2 23 -2 30 0 6 3 -1 5 -18 5 -16 0 -22 -2 -12 -5z"/>
<path d="M2085 1880 c9 -16 18 -30 21 -30 2 0 -2 14 -11 30 -9 17 -18 30 -21
30 -2 0 2 -13 11 -30z"/>
<path d="M145 786 c-102 -46 -147 -177 -113 -325 l11 -51 53 0 53 0 -19 43
c-32 70 -29 77 36 77 l56 0 -4 -60 -4 -60 52 0 53 0 -10 33 c-5 17 -9 86 -9
152 2 191 3 180 -25 193 -34 16 -93 15 -130 -2z m75 -126 l0 -60 -55 0 c-60 0
-62 3 -41 54 15 36 50 66 78 66 15 0 18 -9 18 -60z"/>
<path d="M445 786 c-125 -54 -140 -276 -24 -353 34 -22 47 -25 106 -21 118 6
168 64 168 193 -1 92 -27 145 -88 174 -49 24 -117 27 -162 7z m109 -66 c39
-15 59 -63 54 -133 -4 -50 -9 -64 -32 -84 -68 -58 -146 -4 -146 102 0 93 53
142 124 115z"/>
<path d="M758 792 l-26 -3 -1 -122 c-1 -142 8 -191 42 -225 47 -47 158 -46
205 2 26 26 27 30 33 184 3 86 5 158 4 159 -1 2 -21 4 -45 5 l-43 3 2 -135 c2
-150 -5 -172 -54 -172 -49 0 -56 22 -54 171 1 148 5 141 -63 133z"/>
<path d="M1175 783 c-102 -54 -146 -174 -113 -313 l13 -55 53 -3 c28 -2 52 -1
52 1 0 2 -6 17 -14 33 -8 16 -18 41 -21 57 l-7 27 57 0 57 0 -4 -60 -3 -60 50
0 50 0 -5 182 c-5 182 -5 182 -30 195 -34 17 -99 16 -135 -4z m75 -123 l0 -60
-55 0 c-30 0 -55 2 -55 5 0 20 35 83 53 97 44 34 57 24 57 -42z"/>
<path d="M1380 795 c0 0 -1 -87 -3 -193 l-2 -192 50 0 50 0 -3 155 -3 155 46
0 c39 0 47 -4 57 -26 16 -35 1 -57 -48 -68 -21 -5 -41 -11 -42 -12 -2 -1 11
-48 30 -103 l33 -100 59 -1 c56 0 58 1 43 18 -9 9 -26 43 -38 75 l-22 57 37
33 c32 27 37 38 38 76 0 48 -23 88 -63 108 -18 8 -133 18 -219 18z"/>
<path d="M1703 791 c-4 -3 -8 -90 -8 -194 l0 -187 50 0 50 0 -3 190 c-3 171
-5 190 -20 191 -9 0 -27 2 -39 3 -12 1 -26 0 -30 -3z"/>
<path d="M2031 792 c-7 -2 -11 -47 -11 -141 0 -147 -4 -161 -50 -161 -46 0
-50 14 -50 162 l0 138 -47 0 -48 0 5 -152 c5 -165 12 -188 60 -213 37 -19 123
-19 160 0 51 26 59 56 61 220 l1 148 -35 2 c-19 0 -39 -1 -46 -3z"/>
<path d="M2224 781 c-52 -24 -74 -55 -74 -104 0 -51 35 -84 121 -112 49 -17
65 -27 67 -43 7 -49 -80 -53 -129 -6 l-26 25 -21 -32 c-11 -18 -18 -38 -15
-46 10 -25 80 -53 133 -53 97 0 155 45 155 122 0 49 -25 73 -106 103 -35 12
-68 29 -73 38 -26 41 64 65 113 30 23 -15 25 -15 38 3 36 47 35 51 -10 73 -54
26 -119 27 -173 2z"/>
<path d="M621 396 c-20 -24 -77 -31 -121 -13 l-39 15 16 -24 c32 -50 125 -72
168 -40 18 13 18 16 4 46 -13 28 -16 30 -28 16z"/>
<path d="M700 123 c5 -16 14 -47 20 -70 6 -24 15 -43 20 -43 5 0 17 26 27 57
l18 56 16 -53 c9 -30 21 -56 26 -57 5 -2 19 28 30 67 11 38 17 70 13 70 -5 0
-16 -26 -26 -57 l-17 -58 -15 58 c-9 31 -21 57 -27 57 -6 0 -18 -26 -27 -57
-16 -60 -19 -59 -38 15 -6 23 -15 42 -20 42 -5 0 -5 -11 0 -27z"/>
<path d="M1015 140 c-6 -9 -45 -120 -45 -127 0 -13 19 1 23 17 7 28 63 28 70
0 3 -11 9 -20 15 -20 5 0 -2 31 -16 70 -24 68 -34 81 -47 60z m30 -57 c5 -20
3 -23 -19 -23 -24 0 -24 2 -14 31 11 32 21 29 33 -8z"/>
<path d="M1198 143 c20 -4 22 -11 24 -71 l1 -67 6 65 c5 58 8 65 31 71 17 5 7
7 -30 7 -30 -1 -45 -3 -32 -5z"/>
<path d="M1370 80 l0 -70 48 2 c43 1 44 2 10 5 -33 4 -38 8 -38 29 0 20 5 24
30 24 17 0 30 5 30 10 0 6 -13 10 -30 10 -25 0 -30 4 -30 24 0 21 5 25 38 29
34 3 33 4 -10 5 l-48 2 0 -70z"/>
<path d="M1560 81 c0 -41 4 -71 10 -71 6 0 10 13 10 30 0 40 28 40 41 0 6 -17
15 -30 21 -30 6 0 7 8 3 18 -15 36 -17 52 -6 52 8 0 11 12 9 33 -3 30 -6 32
-45 35 l-43 3 0 -70z m70 44 c16 -19 -3 -45 -31 -45 -14 0 -19 7 -19 30 0 23
5 30 19 30 10 0 24 -7 31 -15z"/>
</g>
</svg>
